<?xml version="1.0" encoding="UTF-8" standalone="no"?>
<svg
   width="81.824936pt"
   height="120.86327pt"
   viewBox="0 0 81.824934 120.86327"
   version="1.1"
   id="svg3016"
   xmlns="http://www.w3.org/2000/svg"
   xmlns:svg="http://www.w3.org/2000/svg">
  <defs
     id="defs408" />
  <g
     id="g3018"
     transform="translate(-734.81862,-49.125002)">
    <path
       fill-rule="nonzero"
       fill="#21372c"
       fill-opacity="1"
       d="m 765.39453,160.98437 h 4.86328 v 0.4375 h -3.6289 v 3.85938 h 2.98437 v 0.4375 h -2.98437 v 3.83203 h 3.6289 v 0.4375 h -4.86328 z m 0,0"
       id="path447" />
    <path
       fill-rule="nonzero"
       fill="#21372c"
       fill-opacity="1"
       d="m 776.44141,165.44922 c 1.26171,0 2.00781,-0.76172 2.00781,-2.03516 0,-1.23437 -0.78516,-2.00781 -2.17578,-2.00781 h -1.3125 v 4.04297 z m -2.71485,-4.46485 2.54688,0.0117 c 2.08593,0.0117 3.46093,1.00391 3.46093,2.42969 0,1.37891 -1.36328,2.40625 -2.96875,2.44531 l 3.48438,4.11719 h -0.62891 l -3.48828,-4.11719 h -1.17187 v 4.11719 h -1.23438 z m 0,0"
       id="path448" />
    <path
       fill-rule="nonzero"
       fill="#21372c"
       fill-opacity="1"
       d="m 784.75,161.42187 h -2.70313 v -0.4375 h 6.64063 v 0.4375 h -2.70313 v 8.56641 H 784.75 Z m 0,0"
       id="path449" />
    <path
       fill-rule="nonzero"
       fill="#21372c"
       fill-opacity="1"
       d="m 791.73437,160.98437 h 1.23438 v 4.29688 h 4.90234 v -4.29688 h 1.23438 v 9.00391 h -1.23438 v -4.26953 h -4.90234 v 4.26953 h -1.23438 z m 0,0"
       id="path450" />
    <path
       fill-rule="nonzero"
       fill="#21372c"
       fill-opacity="1"
       d="m 759.33594,95.453125 c 0.34765,0.109375 0.71875,-0.08203 0.83984,-0.429687 0.48047,-1.414063 1.65234,-4.851563 2.10547,-6.136719 0.0977,-0.285157 0.40234,-0.441407 0.69531,-0.359375 1.13281,0.316406 3.90235,1.042968 5.28516,1.40625 0.46094,0.121094 0.93359,-0.132813 1.08984,-0.585938 0.64063,-1.839844 2.20703,-6.367187 2.75391,-8.078125 0.11719,-0.375 -0.0898,-0.773437 -0.46485,-0.890625 -1.46875,-0.457031 -4.91406,-1.515625 -6.35546,-1.847656 -0.35157,-0.08203 -0.70313,0.109375 -0.82422,0.449219 -0.46875,1.339843 -1.61719,4.554687 -2.1836,5.691406 -0.1289,0.257813 -0.41797,0.386719 -0.6914,0.300781 -1.23047,-0.394531 -4.63282,-1.4375 -6.14453,-1.898437 -0.41407,-0.128907 -0.85157,0.08984 -0.9961,0.5 -0.65625,1.828125 -2.37109,6.613281 -2.98828,8.480469 -0.14062,0.425781 0.0898,0.875 0.51172,1.015624 1.69531,0.554688 5.80078,1.890626 7.36719,2.382813"
       id="path451" />
    <path
       fill-rule="nonzero"
       fill="#21372c"
       fill-opacity="1"
       d="m 759.88672,82 c 0.42578,0.140625 0.88672,-0.07813 1.05078,-0.5 0.66016,-1.71875 2.25,-6.050781 2.99609,-8.085938 0.21485,-0.59375 -0.0976,-1.25 -0.69922,-1.453124 -1.60156,-0.53125 -4.64062,-1.480469 -6.25781,-1.984376 -0.60937,-0.191406 -1.26172,0.125 -1.5,0.71875 -0.69922,1.746094 -2.10937,5.320313 -2.98437,7.949219 -0.16407,0.492188 0.10547,1.019531 0.60156,1.179688 z m 0,0"
       id="path452" />
    <path
       fill-rule="nonzero"
       fill="#21372c"
       fill-opacity="1"
       d="m 801.03906,133.64844 c -0.64844,-0.28125 -1.3164,-0.42578 -2.01172,-0.42578 -0.0547,0 -0.10937,0 -0.16797,0.004 -0.63281,0.0195 -1.26562,0.0664 -1.89453,0.0664 h -0.0469 c -0.41797,0 -0.83594,-0.0703 -1.25391,-0.11328 0,-0.043 0,-0.0898 0,-0.13672 0.53516,-0.55078 1.58594,-1.16016 2.46485,-1.16016 0.18359,0 0.36328,0.0273 0.53125,0.0898 0.0742,-0.0859 1.3125,-1.82032 1.85937,-3.12891 0.22266,-0.53516 0.14844,-0.65625 -0.42578,-0.73047 -0.1875,-0.0234 -0.37109,-0.0352 -0.55078,-0.0352 -1.13281,0 -2.11328,0.47266 -2.89453,1.31641 -1.69532,1.83203 -2.91016,3.98438 -3.90625,6.26172 -0.125,0.28516 -0.21875,0.59375 -0.27344,0.89844 -0.11328,0.64453 0.0508,0.9414 0.67969,1.08593 0.51172,0.1211 1.04687,0.17188 1.57031,0.1836 0.10937,0.004 0.21875,0.004 0.33203,0.004 0.63281,0 1.26953,-0.0391 1.90625,-0.0391 0.27734,0 0.55078,0.0625 0.82813,0.0937 -2.7461,1.59766 -5.69141,2.51172 -8.86329,3.06641 0.59766,0.90625 1.28516,1.45312 2.20313,1.67969 0.67969,0.16796 1.33203,0.24609 1.95312,0.24609 4.01172,0 6.76563,-3.27344 8.27735,-7.02344 0.15234,-0.375 0.22656,-0.78906 0.29297,-1.1914 0.082,-0.49219 -0.15625,-0.81641 -0.60938,-1.01172"
       id="path453" />
    <path
       fill-rule="nonzero"
       fill="#21372c"
       fill-opacity="1"
       d="m 799.84375,109.19531 c -0.0352,-0.125 -0.0781,-0.30078 -0.12891,-0.51172 -0.75,-3.07812 -1.45703,-4.65234 -2.10156,-4.68359 -2.34375,-0.11328 -4.24219,1.01563 -6.35547,2.73438 -1.91015,1.55078 -3.91406,3.33593 -6.125,5.46093 -2.07812,1.9961 -4.04297,4.16797 -5.94922,6.26953 -1.6875,1.86329 -3.4375,3.78907 -5.26172,5.59375 -4.42187,4.37891 -8.67968,6.82813 -13.02343,7.48438 -4.16016,0.6289 -9.45313,-0.66406 -11.89844,-4.96875 -0.0547,-0.0937 -0.0977,-0.16797 -0.14063,-0.22656 -0.0937,0.60937 -0.0391,1.9414 0.0352,2.41796 0.48438,3.05469 1.3125,5.62891 2.46094,7.65235 2.11328,3.71875 6.16015,6.02734 10.57031,6.02734 h 0.0156 c 4.35937,-0.008 8.86718,-2.13281 13.40234,-6.32031 2.26953,-2.09375 4.37891,-4.4375 6.41797,-6.69922 1.72265,-1.91406 3.5039,-3.89062 5.38281,-5.72265 2.23438,-2.17969 4.34766,-4.08985 6.46094,-5.82813 1.90234,-1.57031 4.16406,-3.23437 7.05469,-3.14453 0.23046,-0.70703 -0.44532,-4.16797 -0.81641,-5.53516"
       id="path454" />
    <path
       fill-rule="nonzero"
       fill="#21372c"
       fill-opacity="1"
       d="m 794.37891,92.832031 c 1.13671,1.273438 2.26562,2.535157 3.36328,3.796875 4.87109,5.589844 9.76953,11.765624 12.57422,19.050784 1.91406,4.96094 2.32031,10.30859 1.77734,15.5664 -0.67188,6.50782 -1.53125,6.7461 -1.82422,9.47266 -0.043,0.43359 0.53516,0.62109 0.74219,0.23828 0.89062,-1.66016 1.74219,-4.14062 2.1914,-5.54687 1.64844,-5.1836 2.57813,-10.63282 2.84375,-16.08594 0.10157,-2.09766 0.0547,-4.20703 -0.20312,-6.29297 -0.64844,-5.28516 -2.73438,-10.59766 -6.37891,-16.234375 -2.15625,-3.332031 -4.64062,-6.457031 -7.21484,-9.472656 -2.01563,1.136719 -4.03906,2.480469 -6.0625,4.046875 -0.60938,0.472656 -1.21094,0.964844 -1.80859,1.460937"
       id="path455" />
    <path
       fill-rule="nonzero"
       fill="#21372c"
       fill-opacity="1"
       d="m 786.46875,68.484375 c -4.45703,-6.476563 -6.99219,-12.988281 -7.53516,-19.359375 -0.082,0.07813 -3.51953,3.308594 -3.51562,10.429688 0.0117,9.535156 5.58203,17.355468 11.45703,24.617187 2.32812,-2.164063 4.71484,-4.234375 7.22266,-6.082031 -2.67969,-3.0625 -5.3086,-6.234375 -7.62891,-9.605469"
       id="path456" />
    <path
       fill-rule="nonzero"
       fill="#21372c"
       fill-opacity="1"
       d="m 815.75,76.574219 c -0.0273,-0.09766 -0.0625,-0.238281 -0.10547,-0.414063 -1.06641,-4.292968 -1.80078,-4.777344 -2.08984,-4.777344 -6.33594,0 -12.58203,2.894532 -17.69141,6.425782 -5.07812,3.515625 -9.49609,7.875 -13.89062,12.183594 -2.37891,2.335937 -4.83985,4.75 -7.29297,6.914062 -7.23438,6.38672 -14.02344,10.05469 -20.75391,11.21094 -3.85547,0.66406 -7.39453,0.45312 -10.51953,-0.625 -1.50781,-0.52344 -3.22656,-1.22266 -4.51953,-2.44531 -2.08203,-1.96485 -2.69141,-3.60938 -3.13672,-4.8086 -0.20703,-0.558592 -0.37109,-0.996092 -0.625,-1.324218 -0.11328,-0.144531 -0.19531,-0.230468 -0.25781,-0.285156 -0.10157,0.433594 -0.0352,1.617184 0.11718,2.417974 1.25391,6.53906 3.4336,13.62109 10.10938,16.55468 6.52344,2.86719 13.26562,1.34766 17.77734,-0.43359 8.66016,-3.42188 15.30469,-9.97656 21.73047,-16.31641 3.5625,-3.511716 7.14063,-7.042966 11.10156,-10.109372 5.56641,-4.308594 12.08594,-7.738282 19.17188,-8.492188 0.1875,-0.01953 1.65625,-0.02734 1.70312,-0.128906 0.24219,-0.539063 -0.22265,-3.3125 -0.82812,-5.546875"
       id="path457" />
  </g>
  <path
     fill="none"
     stroke-width="0.503"
     stroke-linecap="butt"
     stroke-linejoin="miter"
     stroke="#9c8567"
     stroke-opacity="1"
     stroke-miterlimit="10"
     d="M 85.185286,844.84375 H -714.20534 c -6.07031,0 -10.98828,-4.91797 -10.98828,-10.98828 V -6.5546921 c 0,-6.0663999 4.91797,-10.9843699 10.98828,-10.9843699 H 85.185286 c 6.070313,0 10.988282,4.91797 10.988282,10.9843699 V 833.85547 c 0,6.07031 -4.917969,10.98828 -10.988282,10.98828 z m 0,0"
     id="path856" />
</svg>
