<?xml version="1.0" encoding="UTF-8" standalone="no"?>
<!-- Created with Inkscape (http://www.inkscape.org/) -->

<svg
   version="1.1"
   id="svg1"
   width="379.74167"
   height="437.74554"
   viewBox="0 0 379.74166 437.74554"
   xmlns="http://www.w3.org/2000/svg"
   xmlns:svg="http://www.w3.org/2000/svg">
  <defs
     id="defs1" />
  <g
     id="g1"
     transform="translate(-22.387135,-749.06355)">
    <g
       id="group-MC0">
      <g
         id="g1069">
        <path
           id="path5"
           d="m 0,0 h 20.326 c 1.057,0 1.914,0.857 1.914,1.915 v 12.051 c 0,1.057 -0.857,1.915 -1.914,1.915 H 0 c -1.058,0 -1.915,-0.858 -1.915,-1.915 V 1.915 C -1.915,0.857 -1.058,0 0,0 Z"
           style="fill:none;stroke:#ed1c24;stroke-width:0.567;stroke-linecap:butt;stroke-linejoin:miter;stroke-miterlimit:10;stroke-dasharray:none;stroke-opacity:1"
           transform="matrix(1.3333333,0,0,-1.3333333,196.88067,964.33853)" />
        <path
           id="path6"
           d="m 0,0 h 20.326 c 1.057,0 1.914,0.857 1.914,1.915 v 12.051 c 0,1.057 -0.857,1.915 -1.914,1.915 H 0 c -1.058,0 -1.915,-0.858 -1.915,-1.915 V 1.915 C -1.915,0.857 -1.058,0 0,0 Z"
           style="fill:none;stroke:#ed1c24;stroke-width:0.567;stroke-linecap:butt;stroke-linejoin:miter;stroke-miterlimit:10;stroke-dasharray:none;stroke-opacity:1"
           transform="matrix(1.3333333,0,0,-1.3333333,156.76333,964.33853)" />
        <path
           id="path7"
           d="m 0,0 h 20.326 c 1.057,0 1.914,0.857 1.914,1.915 v 12.051 c 0,1.057 -0.857,1.915 -1.914,1.915 H 0 c -1.058,0 -1.915,-0.858 -1.915,-1.915 V 1.915 C -1.915,0.857 -1.058,0 0,0 Z"
           style="fill:none;stroke:#ed1c24;stroke-width:0.567;stroke-linecap:butt;stroke-linejoin:miter;stroke-miterlimit:10;stroke-dasharray:none;stroke-opacity:1"
           transform="matrix(1.3333333,0,0,-1.3333333,114.40267,964.33853)" />
        <text
           id="text20"
           xml:space="preserve"
           transform="matrix(1.3333333,0,0,1.3333333,319.95307,820.4912)"><tspan
             id="tspan20"
             style="font-variant:normal;font-weight:normal;font-stretch:normal;font-size:6.055px;font-family:'JF Flat';writing-mode:lr-tb;fill:#231f20;fill-opacity:1;fill-rule:nonzero;stroke:none"
             x="0"
             y="0">Lenght</tspan><tspan
             id="tspan21"
             style="font-variant:normal;font-weight:normal;font-stretch:normal;font-size:6.055px;font-family:'JF Flat';writing-mode:lr-tb;fill:#231f20;fill-opacity:1;fill-rule:nonzero;stroke:none"
             x="0"
             y="19.26701">Width</tspan><tspan
             id="tspan22"
             style="font-variant:normal;font-weight:normal;font-stretch:normal;font-size:6.055px;font-family:'JF Flat';writing-mode:lr-tb;fill:#231f20;fill-opacity:1;fill-rule:nonzero;stroke:none"
             x="0"
             y="38.534019">Distance</tspan></text>
        <text
           id="text44"
           xml:space="preserve"
           transform="matrix(1.3333333,0,0,1.3333333,159.04293,759.092)"><tspan
             id="tspan44"
             style="font-variant:normal;font-weight:normal;font-stretch:normal;font-size:6.623px;font-family:'JF Flat';writing-mode:lr-tb;fill:#231f20;fill-opacity:1;fill-rule:nonzero;stroke:none"
             x="0"
             y="0">Collar</tspan></text>
        <text
           id="text45"
           xml:space="preserve"
           transform="matrix(1.3333333,0,0,1.3333333,155.95187,813.1252)"><tspan
             id="tspan45"
             style="font-variant:normal;font-weight:normal;font-stretch:normal;font-size:6.8648px;font-family:'JF Flat';writing-mode:lr-tb;fill:#231f20;fill-opacity:1;fill-rule:nonzero;stroke:none"
             x="0"
             y="0">Length</tspan></text>
        <text
           id="text46"
           xml:space="preserve"
           transform="matrix(1.3333333,0,0,1.3333333,133.9336,828.6552)"><tspan
             id="tspan46"
             style="font-variant:normal;font-weight:normal;font-stretch:normal;font-size:7.8096px;font-family:Poppins;writing-mode:lr-tb;fill:#231f20;fill-opacity:1;fill-rule:nonzero;stroke:none"
             x="0"
             dx="0 47.708847"
             y="0">FB</tspan><tspan
             id="tspan47"
             style="font-variant:normal;font-weight:normal;font-stretch:normal;font-size:7.8096px;font-family:Poppins;writing-mode:lr-tb;fill:#231f20;fill-opacity:1;fill-rule:nonzero;stroke:none"
             x="-18.141701"
             dx="0 81.969559"
             y="-34.268524">LW</tspan></text>
        <text
           id="text47"
           xml:space="preserve"
           transform="matrix(1.3333333,0,0,1.3333333,153.76427,873.31533)"><tspan
             id="tspan48"
             style="font-variant:normal;font-weight:normal;font-stretch:normal;font-size:6.8648px;font-family:'JF Flat';writing-mode:lr-tb;fill:#231f20;fill-opacity:1;fill-rule:nonzero;stroke:none"
             x="0"
             y="0">Shoulder</tspan><tspan
             id="tspan49"
             style="font-variant:normal;font-weight:normal;font-stretch:normal;font-size:6.8648px;font-family:'JF Flat';writing-mode:lr-tb;fill:#231f20;fill-opacity:1;fill-rule:nonzero;stroke:none"
             x="-2.0182512"
             y="46.996422">Armholes</tspan><tspan
             id="tspan50"
             style="font-variant:normal;font-weight:normal;font-stretch:normal;font-size:6.8648px;font-family:'JF Flat';writing-mode:lr-tb;fill:#231f20;fill-opacity:1;fill-rule:nonzero;stroke:none"
             x="3.7138567"
             y="158.89952">Waist</tspan><tspan
             id="tspan51"
             style="font-variant:normal;font-weight:normal;font-stretch:normal;font-size:6.8648px;font-family:'JF Flat';writing-mode:lr-tb;fill:#231f20;fill-opacity:1;fill-rule:nonzero;stroke:none"
             x="1.5033911"
             y="204.87309">Bottom</tspan><tspan
             id="tspan52"
             style="font-variant:normal;font-weight:normal;font-stretch:normal;font-size:6.8648px;font-family:'JF Flat';writing-mode:lr-tb;fill:#231f20;fill-opacity:1;fill-rule:nonzero;stroke:none"
             x="-1.88782"
             y="85.12352">Up Chest</tspan><tspan
             id="tspan53"
             style="font-variant:normal;font-weight:normal;font-stretch:normal;font-size:6.8648px;font-family:'JF Flat';writing-mode:lr-tb;fill:#231f20;fill-opacity:1;fill-rule:nonzero;stroke:none"
             x="-23.470751"
             dx="0 0 0 0 0 27.28758"
             y="124.98741">ChestHalf Chest</tspan><tspan
             id="tspan54"
             style="font-variant:normal;font-weight:normal;font-stretch:normal;font-size:6.8648px;font-family:'JF Flat';writing-mode:lr-tb;fill:#231f20;fill-opacity:1;fill-rule:nonzero;stroke:none"
             x="-30.486576"
             y="46.996422">Sleeves</tspan></text>
        <path
           id="path54"
           d="m 0,0 c 1.339,-40.898 3.464,-83.197 6.529,-126.796 3.388,-48.205 7.688,-91.381 12.683,-136.034 -46.573,0.204 -93.147,0.408 -139.721,0.612 1.276,26.243 2.615,49.167 4.018,75.379 3.345,62.516 7.056,125.021 11.134,187.516 -10.767,-36.135 -28.589,-100.521 -28.589,-100.521 l -29.844,0.141 c 0,0 31.387,97.952 47.082,146.927 15.891,4.122 31.781,8.244 47.673,12.365 0.937,1.76 1.876,3.521 2.814,5.281 9.051,-0.297 18.015,0.246 27.067,-0.052 1.327,-1.468 2.745,-3.777 4.072,-5.246 15.365,-3.989 30.73,-7.979 46.094,-11.968 14.714,-49.312 44.142,-147.936 44.142,-147.936 l -31.655,1.205 C 23.499,-99.127 9.776,-36.478 0,0 Z"
           style="fill:none;stroke:#9c8567;stroke-width:0.567;stroke-linecap:butt;stroke-linejoin:miter;stroke-miterlimit:10;stroke-dasharray:none;stroke-opacity:1"
           transform="matrix(1.3333333,0,0,-1.3333333,241.29107,835.9892)" />
        <path
           id="path55"
           d="M 0,0 V -22.151"
           style="fill:none;stroke:#9c8567;stroke-width:0.567;stroke-linecap:butt;stroke-linejoin:miter;stroke-miterlimit:10;stroke-dasharray:none;stroke-opacity:1"
           transform="matrix(1.3333333,0,0,-1.3333333,169.50387,825.12813)" />
        <path
           id="path56"
           d="M 0,0 H 91.968"
           style="fill:none;stroke:#9c8567;stroke-width:0.567;stroke-linecap:butt;stroke-linejoin:miter;stroke-miterlimit:10;stroke-dasharray:none;stroke-opacity:1"
           transform="matrix(1.3333333,0,0,-1.3333333,108.1916,862.57493)" />
        <path
           id="path57"
           d="M 0,0 H 29.719"
           style="fill:none;stroke:#9c8567;stroke-width:0.567;stroke-linecap:butt;stroke-linejoin:miter;stroke-miterlimit:10;stroke-dasharray:none;stroke-opacity:1"
           transform="matrix(1.3333333,0,0,-1.3333333,149.69133,795.2036)" />
        <path
           id="path58"
           d="M 0,0 H 91.968"
           style="fill:none;stroke:#9c8567;stroke-width:0.567;stroke-linecap:butt;stroke-linejoin:miter;stroke-miterlimit:10;stroke-dasharray:none;stroke-opacity:1"
           transform="matrix(1.3333333,0,0,-1.3333333,108.1916,923.86187)" />
        <path
           id="path59"
           d="M 0,0 H 92.364"
           style="fill:none;stroke:#9c8567;stroke-width:0.567;stroke-linecap:butt;stroke-linejoin:miter;stroke-miterlimit:10;stroke-dasharray:none;stroke-opacity:1"
           transform="matrix(1.3333333,0,0,-1.3333333,107.928,973.43907)" />
        <path
           id="path60"
           d="M 0,0 V 29.47"
           style="fill:none;stroke:#9c8567;stroke-width:0.567;stroke-linecap:butt;stroke-linejoin:miter;stroke-miterlimit:10;stroke-dasharray:none;stroke-opacity:1"
           transform="matrix(1.3333333,0,0,-1.3333333,169.50387,1067.8405)" />
        <path
           id="path61"
           d="M 0,0 V 20.902"
           style="fill:none;stroke:#9c8567;stroke-width:0.567;stroke-linecap:butt;stroke-linejoin:miter;stroke-miterlimit:10;stroke-dasharray:none;stroke-opacity:1"
           transform="matrix(1.3333333,0,0,-1.3333333,169.50387,1125.5901)" />
        <path
           id="path62"
           d="M 0,0 V 29.47"
           style="fill:none;stroke:#9c8567;stroke-width:0.567;stroke-linecap:butt;stroke-linejoin:miter;stroke-miterlimit:10;stroke-dasharray:none;stroke-opacity:1"
           transform="matrix(1.3333333,0,0,-1.3333333,149.3644,967.91573)" />
        <text
           id="text62"
           xml:space="preserve"
           transform="matrix(1.3333333,0,0,1.3333333,198.7044,935.97947)"><tspan
             id="tspan62"
             style="font-variant:normal;font-weight:normal;font-stretch:normal;font-size:6.8648px;font-family:'JF Flat';writing-mode:lr-tb;fill:#231f20;fill-opacity:1;fill-rule:nonzero;stroke:none"
             x="0"
             y="0">Width</tspan></text>
        <path
           id="path63"
           d="M 0,0 V 29.47"
           style="fill:none;stroke:#9c8567;stroke-width:0.567;stroke-linecap:butt;stroke-linejoin:miter;stroke-miterlimit:10;stroke-dasharray:none;stroke-opacity:1"
           transform="matrix(1.3333333,0,0,-1.3333333,190.09027,967.91573)" />
        <path
           id="path64"
           d="M 0,0 H 93.946"
           style="fill:none;stroke:#9c8567;stroke-width:0.567;stroke-linecap:butt;stroke-linejoin:miter;stroke-miterlimit:10;stroke-dasharray:none;stroke-opacity:1"
           transform="matrix(1.3333333,0,0,-1.3333333,106.8732,1026.4077)" />
        <path
           id="path65"
           d="M 0,0 H 93.946"
           style="fill:none;stroke:#9c8567;stroke-width:0.567;stroke-linecap:butt;stroke-linejoin:miter;stroke-miterlimit:10;stroke-dasharray:none;stroke-opacity:1"
           transform="matrix(1.3333333,0,0,-1.3333333,106.8732,1073.2085)" />
        <path
           id="path66"
           d="M 0,0 H 93.946"
           style="fill:none;stroke:#9c8567;stroke-width:0.567;stroke-linecap:butt;stroke-linejoin:miter;stroke-miterlimit:10;stroke-dasharray:none;stroke-opacity:1"
           transform="matrix(1.3333333,0,0,-1.3333333,106.8732,1131.6407)" />
        <text
           id="text66"
           xml:space="preserve"
           transform="matrix(1.3333333,0,0,1.3333333,133.9336,1097.7229)"><tspan
             id="tspan66"
             style="font-variant:normal;font-weight:normal;font-stretch:normal;font-size:7.8096px;font-family:Poppins;writing-mode:lr-tb;fill:#231f20;fill-opacity:1;fill-rule:nonzero;stroke:none"
             x="0"
             dx="0 47.708847"
             y="0">FB</tspan></text>
        <path
           id="path1005"
           d="m 0,0 h 28.966 c 1.338,0 2.423,1.085 2.423,2.423 v 13.321 c 0,1.338 -1.085,2.423 -2.423,2.423 H 0 c -1.338,0 -2.423,-1.085 -2.423,-2.423 V 2.423 C -2.423,1.085 -1.338,0 0,0 Z"
           style="fill:none;stroke:#ed1c24;stroke-width:0.354;stroke-linecap:butt;stroke-linejoin:miter;stroke-miterlimit:10;stroke-dasharray:none;stroke-opacity:1"
           transform="matrix(1.3333333,0,0,-1.3333333,359.9436,924.21573)" />
        <path
           id="path1006"
           d="m 0,0 h 32.844 c 1.516,0 2.745,1.229 2.745,2.745 v 15.079 c 0,1.517 -1.229,2.746 -2.745,2.746 H 0 c -1.516,0 -2.745,-1.229 -2.745,-2.746 V 2.745 C -2.745,1.229 -1.516,0 0,0 Z"
           style="fill:none;stroke:#ed1c24;stroke-width:0.734;stroke-linecap:butt;stroke-linejoin:miter;stroke-miterlimit:10;stroke-dasharray:none;stroke-opacity:1"
           transform="matrix(1.3333333,0,0,-1.3333333,147.60813,913.384)" />
        <path
           id="path1007"
           d="m 0,0 h 32.844 c 1.516,0 2.745,1.229 2.745,2.745 v 15.079 c 0,1.517 -1.229,2.746 -2.745,2.746 H 0 c -1.516,0 -2.745,-1.229 -2.745,-2.746 V 2.745 C -2.745,1.229 -1.516,0 0,0 Z"
           style="fill:none;stroke:#ed1c24;stroke-width:0.734;stroke-linecap:butt;stroke-linejoin:miter;stroke-miterlimit:10;stroke-dasharray:none;stroke-opacity:1"
           transform="matrix(1.3333333,0,0,-1.3333333,147.60813,1021.9035)" />
        <path
           id="path1008"
           d="m 0,0 h 32.844 c 1.516,0 2.745,1.229 2.745,2.745 v 15.079 c 0,1.517 -1.229,2.746 -2.745,2.746 H 0 c -1.516,0 -2.745,-1.229 -2.745,-2.746 V 2.745 C -2.745,1.229 -1.516,0 0,0 Z"
           style="fill:none;stroke:#ed1c24;stroke-width:0.734;stroke-linecap:butt;stroke-linejoin:miter;stroke-miterlimit:10;stroke-dasharray:none;stroke-opacity:1"
           transform="matrix(1.3333333,0,0,-1.3333333,147.60813,1179.8263)" />
        <text
           id="text1008"
           xml:space="preserve"
           transform="matrix(1.3333333,0,0,1.3333554,320.3476,915.6956)"><tspan
             id="tspan1008"
             style="font-variant:normal;font-weight:normal;font-stretch:normal;font-size:6.0549px;font-family:'JF Flat';writing-mode:lr-tb;fill:#231f20;fill-opacity:1;fill-rule:nonzero;stroke:none"
             x="0"
             y="0">Jabzour</tspan><tspan
             id="tspan1009"
             style="font-variant:normal;font-weight:normal;font-stretch:normal;font-size:6.0549px;font-family:'JF Flat';writing-mode:lr-tb;fill:#231f20;fill-opacity:1;fill-rule:nonzero;stroke:none"
             x="28.476194"
             y="-92.052643">Top Pocket</tspan><tspan
             id="tspan1010"
             style="font-variant:normal;font-weight:normal;font-stretch:normal;font-size:6.0549px;font-family:'JF Flat';writing-mode:lr-tb;fill:#231f20;fill-opacity:1;fill-rule:nonzero;stroke:none"
             x="28.476194"
             y="52.205349">Side Pocket</tspan></text>
        <path
           id="path1010"
           d="m 0,0 h 30.944 c 1.428,0 2.586,1.158 2.586,2.587 v 14.206 c 0,1.429 -1.158,2.587 -2.586,2.587 H 0 c -1.429,0 -2.587,-1.158 -2.587,-2.587 V 2.587 C -2.587,1.158 -1.429,0 0,0 Z"
           style="fill:none;stroke:#ed1c24;stroke-width:0.692;stroke-linecap:butt;stroke-linejoin:miter;stroke-miterlimit:10;stroke-dasharray:none;stroke-opacity:1"
           transform="matrix(1.3333333,0,0,-1.3333333,121.19747,792.7636)" />
        <path
           id="path1011"
           d="m 0,0 h 30.944 c 1.428,0 2.586,1.158 2.586,2.587 v 14.206 c 0,1.429 -1.158,2.587 -2.586,2.587 H 0 c -1.429,0 -2.587,-1.158 -2.587,-2.587 V 2.587 C -2.587,1.158 -1.429,0 0,0 Z"
           style="fill:none;stroke:#ed1c24;stroke-width:0.692;stroke-linecap:butt;stroke-linejoin:miter;stroke-miterlimit:10;stroke-dasharray:none;stroke-opacity:1"
           transform="matrix(1.3333333,0,0,-1.3333333,176.55187,792.7636)" />
        <path
           id="path1012"
           d="m 0,0 h 30.944 c 1.428,0 2.586,1.158 2.586,2.587 v 14.206 c 0,1.429 -1.158,2.587 -2.586,2.587 H 0 c -1.429,0 -2.587,-1.158 -2.587,-2.587 V 2.587 C -2.587,1.158 -1.429,0 0,0 Z"
           style="fill:none;stroke:#ed1c24;stroke-width:0.692;stroke-linecap:butt;stroke-linejoin:miter;stroke-miterlimit:10;stroke-dasharray:none;stroke-opacity:1"
           transform="matrix(1.3333333,0,0,-1.3333333,121.19747,857.5356)" />
        <path
           id="path1013"
           d="m 0,0 h 30.944 c 1.428,0 2.586,1.158 2.586,2.587 v 14.206 c 0,1.429 -1.158,2.587 -2.586,2.587 H 0 c -1.429,0 -2.587,-1.158 -2.587,-2.587 V 2.587 C -2.587,1.158 -1.429,0 0,0 Z"
           style="fill:none;stroke:#ed1c24;stroke-width:0.692;stroke-linecap:butt;stroke-linejoin:miter;stroke-miterlimit:10;stroke-dasharray:none;stroke-opacity:1"
           transform="matrix(1.3333333,0,0,-1.3333333,176.55187,857.5356)" />
        <path
           id="path1014"
           d="m 0,0 h 30.944 c 1.428,0 2.586,1.158 2.586,2.587 v 14.206 c 0,1.429 -1.158,2.587 -2.586,2.587 H 0 c -1.429,0 -2.587,-1.158 -2.587,-2.587 V 2.587 C -2.587,1.158 -1.429,0 0,0 Z"
           style="fill:none;stroke:#ed1c24;stroke-width:0.692;stroke-linecap:butt;stroke-linejoin:miter;stroke-miterlimit:10;stroke-dasharray:none;stroke-opacity:1"
           transform="matrix(1.3333333,0,0,-1.3333333,121.19747,1068.9435)" />
        <path
           id="path1015"
           d="m 0,0 h 30.944 c 1.428,0 2.586,1.158 2.586,2.587 v 14.206 c 0,1.429 -1.158,2.587 -2.586,2.587 H 0 c -1.429,0 -2.587,-1.158 -2.587,-2.587 V 2.587 C -2.587,1.158 -1.429,0 0,0 Z"
           style="fill:none;stroke:#ed1c24;stroke-width:0.692;stroke-linecap:butt;stroke-linejoin:miter;stroke-miterlimit:10;stroke-dasharray:none;stroke-opacity:1"
           transform="matrix(1.3333333,0,0,-1.3333333,176.55187,1068.9435)" />
        <path
           id="path1016"
           d="m 0,0 h 30.944 c 1.428,0 2.586,1.158 2.586,2.587 v 14.206 c 0,1.429 -1.158,2.587 -2.586,2.587 H 0 c -1.429,0 -2.587,-1.158 -2.587,-2.587 V 2.587 C -2.587,1.158 -1.429,0 0,0 Z"
           style="fill:none;stroke:#ed1c24;stroke-width:0.692;stroke-linecap:butt;stroke-linejoin:miter;stroke-miterlimit:10;stroke-dasharray:none;stroke-opacity:1"
           transform="matrix(1.3333333,0,0,-1.3333333,121.19747,1128.0977)" />
        <path
           id="path1017"
           d="m 0,0 h 30.944 c 1.428,0 2.586,1.158 2.586,2.587 v 14.206 c 0,1.429 -1.158,2.587 -2.586,2.587 H 0 c -1.429,0 -2.587,-1.158 -2.587,-2.587 V 2.587 C -2.587,1.158 -1.429,0 0,0 Z"
           style="fill:none;stroke:#ed1c24;stroke-width:0.692;stroke-linecap:butt;stroke-linejoin:miter;stroke-miterlimit:10;stroke-dasharray:none;stroke-opacity:1"
           transform="matrix(1.3333333,0,0,-1.3333333,176.55187,1128.0977)" />
        <path
           id="path1018"
           d="m 0,0 v 53.663 c 0,2.486 -2.015,4.5 -4.5,4.5 h -24.812 c -2.485,0 -4.5,-2.014 -4.5,-4.5 V 0 c 0,-2.485 2.015,-4.5 4.5,-4.5 H -4.5 C -2.015,-4.5 0,-2.485 0,0 Z"
           style="fill:none;stroke:#ed1c24;stroke-width:0.5;stroke-linecap:butt;stroke-linejoin:miter;stroke-miterlimit:10;stroke-dasharray:none;stroke-opacity:1"
           transform="matrix(1.3333333,0,0,-1.3333333,401.79547,878.98133)" />
        <path
           id="path1019"
           d="M 0,0 H 33.812"
           style="fill:none;stroke:#ed1c24;stroke-width:0.5;stroke-linecap:butt;stroke-linejoin:miter;stroke-miterlimit:10;stroke-dasharray:none;stroke-opacity:1"
           transform="matrix(1.3333333,0,0,-1.3333333,356.71293,857.13107)" />
        <path
           id="path1020"
           d="M 0,0 H 33.812"
           style="fill:none;stroke:#ed1c24;stroke-width:0.5;stroke-linecap:butt;stroke-linejoin:miter;stroke-miterlimit:10;stroke-dasharray:none;stroke-opacity:1"
           transform="matrix(1.3333333,0,0,-1.3333333,356.71293,829.28067)" />
        <text
           id="text1020"
           xml:space="preserve"
           transform="matrix(1.3333333,0,0,1.3333333,319.95307,1009.1188)"><tspan
             id="tspan1020"
             style="font-variant:normal;font-weight:normal;font-stretch:normal;font-size:6.055px;font-family:'JF Flat';writing-mode:lr-tb;fill:#231f20;fill-opacity:1;fill-rule:nonzero;stroke:none"
             x="0"
             y="0">Lenght</tspan><tspan
             id="tspan1021"
             style="font-variant:normal;font-weight:normal;font-stretch:normal;font-size:6.055px;font-family:'JF Flat';writing-mode:lr-tb;fill:#231f20;fill-opacity:1;fill-rule:nonzero;stroke:none"
             x="0"
             y="19.26701">Width</tspan><tspan
             id="tspan1022"
             style="font-variant:normal;font-weight:normal;font-stretch:normal;font-size:6.055px;font-family:'JF Flat';writing-mode:lr-tb;fill:#231f20;fill-opacity:1;fill-rule:nonzero;stroke:none"
             x="0"
             y="38.534019">Distance</tspan><tspan
             id="tspan1023"
             style="font-variant:normal;font-weight:normal;font-stretch:normal;font-size:6.055px;font-family:'JF Flat';writing-mode:lr-tb;fill:#231f20;fill-opacity:1;fill-rule:nonzero;stroke:none"
             x="0"
             y="57.801029">Opening</tspan></text>
        <path
           id="path1023"
           d="m 0,0 v 72.807 c 0,2.864 -2.321,5.185 -5.185,5.185 h -23.442 c -2.864,0 -5.185,-2.321 -5.185,-5.185 V 0 c 0,-2.863 2.321,-5.185 5.185,-5.185 H -5.185 C -2.321,-5.185 0,-2.863 0,0 Z"
           style="fill:none;stroke:#ed1c24;stroke-width:0.5;stroke-linecap:butt;stroke-linejoin:miter;stroke-miterlimit:10;stroke-dasharray:none;stroke-opacity:1"
           transform="matrix(1.3333333,0,0,-1.3333333,401.79547,1094.0476)" />
        <path
           id="path1024"
           d="M 0,0 H 33.812"
           style="fill:none;stroke:#ed1c24;stroke-width:0.5;stroke-linecap:butt;stroke-linejoin:miter;stroke-miterlimit:10;stroke-dasharray:none;stroke-opacity:1"
           transform="matrix(1.3333333,0,0,-1.3333333,356.71293,1045.7593)" />
        <path
           id="path1025"
           d="M 0,0 H 33.812"
           style="fill:none;stroke:#ed1c24;stroke-width:0.5;stroke-linecap:butt;stroke-linejoin:miter;stroke-miterlimit:10;stroke-dasharray:none;stroke-opacity:1"
           transform="matrix(1.3333333,0,0,-1.3333333,356.71293,1073.6097)" />
        <path
           id="path1026"
           d="M 0,0 H 33.812"
           style="fill:none;stroke:#ed1c24;stroke-width:0.5;stroke-linecap:butt;stroke-linejoin:miter;stroke-miterlimit:10;stroke-dasharray:none;stroke-opacity:1"
           transform="matrix(1.3333333,0,0,-1.3333333,356.71293,1017.9088)" />
        <text
           id="text1065"
           xml:space="preserve"
           transform="matrix(1.3333333,0,0,1.3333333,331.72987,950.42347)"><tspan
             id="tspan1065"
             style="font-variant:normal;font-weight:normal;font-stretch:normal;font-size:5.4165px;font-family:'JF Flat';writing-mode:lr-tb;fill:#231f20;fill-opacity:1;fill-rule:nonzero;stroke:none"
             x="0"
             y="0">Elbow</tspan></text>
        <path
           id="path1066"
           d="m 0,0 h -27.257 c -1.81,0 -3.278,1.467 -3.278,3.277 v 11.756 c 0,1.81 1.468,3.277 3.278,3.277 L 0,18.31 c 1.81,0 3.277,-1.467 3.277,-3.277 V 3.277 C 3.277,1.467 1.81,0 0,0 Z"
           style="fill:none;stroke:#ed1c24;stroke-width:0.464;stroke-linecap:butt;stroke-linejoin:miter;stroke-miterlimit:10;stroke-dasharray:none;stroke-opacity:1"
           transform="matrix(1.3333333,0,0,-1.3333333,397.42573,961.4848)" />
      </g>
    </g>
  </g>
</svg>
