<?xml version="1.0" encoding="UTF-8"?>
<svg xmlns="http://www.w3.org/2000/svg" width="276" height="84" viewBox="66 162 276 84">
<path fill="#361206" fill-rule="nonzero" d="M 318.035156 170.933594 L 262.710938 170.933594 L 262.710938 168.085938 L 318.035156 168.085938 Z M 318.035156 170.933594 "/>
<path fill="#361206" fill-rule="nonzero" d="M 332.742188 187.128906 L 325.402344 194.46875 L 318.035156 187.128906 L 325.402344 179.761719 Z M 332.742188 187.128906 "/>
<path fill="#361206" fill-rule="nonzero" d="M 318.035156 187.128906 L 310.695312 194.46875 L 303.355469 187.128906 L 310.695312 179.761719 Z M 318.035156 187.128906 "/>
<path fill="#361206" fill-rule="nonzero" d="M 318.035156 227.070312 C 315.003906 227.070312 312.578125 224.585938 312.578125 221.558594 C 312.578125 218.5 315.003906 216.070312 318.035156 216.070312 C 321.09375 216.070312 323.574219 218.5 323.574219 221.558594 C 323.574219 224.585938 321.09375 227.070312 318.035156 227.070312 M 218.09375 226.285156 C 218.070312 226.335938 218.015625 226.363281 217.964844 226.363281 C 217.808594 226.414062 217.625 226.46875 217.441406 226.46875 L 131.085938 226.46875 C 130.902344 226.46875 130.71875 226.414062 130.5625 226.363281 C 130.457031 226.363281 130.378906 226.285156 130.300781 226.234375 C 129.859375 223.488281 131.113281 221.6875 133.777344 221.320312 C 134.195312 221.242188 134.691406 221.242188 135.109375 221.242188 L 213.289062 221.242188 C 217.753906 221.242188 218.199219 225.160156 218.226562 226.101562 C 218.148438 226.234375 218.09375 226.234375 218.09375 226.285156 M 333.867188 204.8125 L 333.605469 204.8125 L 317.773438 204.941406 C 309.257812 205.230469 302.128906 211.632812 300.875 220.066406 C 300.664062 221.636719 300.480469 226.363281 300.480469 226.363281 L 234.5 226.363281 C 234.371094 225.109375 234.265625 223.984375 234.132812 222.835938 C 233.792969 220.066406 233.0625 217.378906 231.3125 215.210938 C 228.152344 211.160156 224.183594 208.339844 219.0625 207.425781 C 216.1875 206.902344 213.316406 206.640625 210.441406 206.667969 L 138.214844 206.667969 C 137.589844 206.667969 136.9375 206.640625 136.285156 206.667969 C 131.214844 207.035156 126.59375 208.550781 123.117188 212.597656 C 123.039062 212.726562 122.855469 212.808594 122.648438 212.988281 C 122.335938 212.675781 122.046875 212.363281 121.8125 212.074219 C 120.296875 210.167969 118.78125 208.234375 117.242188 206.378906 C 116.902344 205.988281 116.507812 205.621094 116.09375 205.203125 C 115.648438 205.542969 115.335938 205.804688 115.046875 206.066406 C 112.460938 208.496094 109.902344 210.925781 107.339844 213.382812 C 105.332031 215.289062 105.511719 214.949219 107.027344 216.984375 C 108.855469 219.492188 110.527344 222.15625 111.730469 225.03125 C 111.914062 225.421875 111.992188 225.839844 112.175781 226.46875 L 86.785156 226.46875 C 85.949219 226.46875 85.21875 226.597656 84.5625 227.25 C 80.75 231.144531 76.859375 234.984375 72.992188 238.847656 C 72.835938 239.058594 72.703125 239.320312 72.390625 239.765625 C 73.253906 239.789062 73.957031 239.894531 74.613281 239.894531 L 298 239.894531 C 309.910156 239.894531 321.824219 239.917969 333.734375 239.917969 C 335.5625 239.917969 335.613281 239.894531 335.613281 238.066406 L 335.613281 206.589844 C 335.613281 204.96875 335.511719 204.890625 333.867188 204.8125 "/>
</svg>
